<svg width="375" height="25" viewBox="0 0 375 25" fill="none" xmlns="http://www.w3.org/2000/svg">
<rect width="375" height="24" transform="translate(0 1)" fill="#F4F4F4"/>
<g filter="url(#filter0_b_779_21191)">
<rect y="1" width="375" height="24" fill="white" fill-opacity="0.76"/>
</g>
<path d="M157.969 11.4629C158.971 11.4629 159.639 12.2012 159.662 13.3203H156.182C156.258 12.2012 156.961 11.4629 157.969 11.4629ZM159.633 15.3652C159.369 15.9219 158.818 16.2207 158.004 16.2207C156.932 16.2207 156.234 15.4297 156.182 14.1816V14.1348H160.723V13.748C160.723 11.7852 159.686 10.5723 157.98 10.5723C156.246 10.5723 155.133 11.8613 155.133 13.8477C155.133 15.8457 156.229 17.1113 157.98 17.1113C159.363 17.1113 160.348 16.4434 160.641 15.3652H159.633ZM161.738 12.4121C161.738 13.3262 162.277 13.8359 163.461 14.123L164.545 14.3867C165.219 14.5508 165.547 14.8438 165.547 15.2773C165.547 15.8574 164.937 16.2617 164.088 16.2617C163.279 16.2617 162.775 15.9219 162.605 15.3887H161.568C161.68 16.4375 162.646 17.1113 164.053 17.1113C165.488 17.1113 166.584 16.332 166.584 15.2012C166.584 14.293 166.01 13.7773 164.82 13.4902L163.848 13.2559C163.103 13.0742 162.752 12.8047 162.752 12.3711C162.752 11.8086 163.338 11.4277 164.088 11.4277C164.85 11.4277 165.342 11.7617 165.476 12.2656H166.473C166.338 11.2285 165.418 10.5723 164.094 10.5723C162.752 10.5723 161.738 11.3633 161.738 12.4121ZM172.726 10.6836H171.648L169.92 15.8867H169.826L168.097 10.6836H167.019L169.357 17H170.389L172.726 10.6836ZM173.607 17.0586C174.029 17.0586 174.369 16.7129 174.369 16.2969C174.369 15.875 174.029 15.5352 173.607 15.5352C173.191 15.5352 172.845 15.875 172.845 16.2969C172.845 16.7129 173.191 17.0586 173.607 17.0586ZM178.203 11.4629C179.205 11.4629 179.873 12.2012 179.896 13.3203H176.416C176.492 12.2012 177.195 11.4629 178.203 11.4629ZM179.867 15.3652C179.603 15.9219 179.052 16.2207 178.238 16.2207C177.166 16.2207 176.468 15.4297 176.416 14.1816V14.1348H180.957V13.748C180.957 11.7852 179.92 10.5723 178.215 10.5723C176.48 10.5723 175.367 11.8613 175.367 13.8477C175.367 15.8457 176.463 17.1113 178.215 17.1113C179.597 17.1113 180.582 16.4434 180.875 15.3652H179.867ZM184.457 17.1113C185.33 17.1113 186.08 16.6953 186.478 15.9922H186.572V17H187.533V8.17578H186.525V11.6797H186.437C186.08 10.9883 185.336 10.5723 184.457 10.5723C182.851 10.5723 181.802 11.8613 181.802 13.8418C181.802 15.8281 182.839 17.1113 184.457 17.1113ZM184.691 11.4805C185.834 11.4805 186.548 12.3945 186.548 13.8418C186.548 15.3008 185.839 16.2031 184.691 16.2031C183.537 16.2031 182.845 15.3184 182.845 13.8418C182.845 12.3711 183.543 11.4805 184.691 11.4805ZM194.179 10.6836H193.171V14.4219C193.171 15.5293 192.562 16.1914 191.449 16.1914C190.441 16.1914 190.019 15.6641 190.019 14.5273V10.6836H189.011V14.7734C189.011 16.2676 189.75 17.1113 191.167 17.1113C192.134 17.1113 192.808 16.7129 193.125 16.0098H193.218V17H194.179V10.6836ZM196.49 17.0586C196.912 17.0586 197.251 16.7129 197.251 16.2969C197.251 15.875 196.912 15.5352 196.49 15.5352C196.074 15.5352 195.728 15.875 195.728 16.2969C195.728 16.7129 196.074 17.0586 196.49 17.0586ZM203.077 10.6836H201.999L200.271 15.8867H200.177L198.449 10.6836H197.37L199.708 17H200.74L203.077 10.6836ZM204.005 17H205.013V13.2617C205.013 12.1543 205.663 11.4805 206.671 11.4805C207.679 11.4805 208.159 12.0195 208.159 13.1562V17H209.167V12.9102C209.167 11.4102 208.376 10.5723 206.958 10.5723C205.991 10.5723 205.376 10.9824 205.06 11.6797H204.966V10.6836H204.005V17Z" fill="black" fill-opacity="0.8"/>
<path fill-rule="evenodd" clip-rule="evenodd" d="M219.5 10.5V12C220.05 12 220.5 12.45 220.5 13V17C220.5 17.55 220.05 18 219.5 18H214.5C213.95 18 213.5 17.55 213.5 17V13C213.5 12.45 213.95 12 214.5 12V10.5C214.5 9.12 215.62 8 217 8C218.38 8 219.5 9.12 219.5 10.5ZM215.5 12H218.5V10.5C218.5 9.67 217.83 9 217 9C216.17 9 215.5 9.67 215.5 10.5V12Z" fill="#616161"/>
<line x1="0.5" y1="1" x2="374.5" y2="1" stroke="#DCDCDC" stroke-linecap="round"/>
<defs>
<filter id="filter0_b_779_21191" x="-48" y="-47" width="471" height="120" filterUnits="userSpaceOnUse" color-interpolation-filters="sRGB">
<feFlood flood-opacity="0" result="BackgroundImageFix"/>
<feGaussianBlur in="BackgroundImageFix" stdDeviation="24"/>
<feComposite in2="SourceAlpha" operator="in" result="effect1_backgroundBlur_779_21191"/>
<feBlend mode="normal" in="SourceGraphic" in2="effect1_backgroundBlur_779_21191" result="shape"/>
</filter>
</defs>
</svg>
