<svg width="24" height="24" viewBox="0 0 24 24" fill="none" xmlns="http://www.w3.org/2000/svg">
<path d="M11.9994 4.61465H12.243L11.9994 4.37109L11.7559 4.61465H11.9994Z" fill="#888888"/>
<path d="M12.2991 5.36523H12.0005H11.7019L11.1543 9.75587L12.0005 10.3824L12.8467 9.75587L12.2991 5.36523Z" fill="#888888"/>
<path d="M22.0155 6.10851L19.4038 3.24396C18.7486 2.52531 17.8765 2.02354 16.9288 1.81445C16.9388 1.87531 16.9443 1.93739 16.9443 2.00031C16.9443 2.30074 16.8273 2.58322 16.6148 2.79583L14.3149 5.09561C14.1024 5.30804 13.82 5.42502 13.5195 5.42502C13.3544 5.42502 13.1948 5.38947 13.0492 5.32239L13.6176 9.88029C13.6344 10.0146 13.5774 10.1475 13.4686 10.2281L12.2232 11.1503C12.2212 11.1518 12.219 11.1527 12.217 11.1542C12.204 11.1634 12.1905 11.1718 12.1766 11.1792C12.174 11.1806 12.1716 11.1823 12.169 11.1836C12.1532 11.1915 12.1369 11.1982 12.1204 11.2038C12.1153 11.2055 12.1102 11.2068 12.1052 11.2083C12.093 11.2118 12.0808 11.2148 12.0683 11.2171C12.0627 11.2181 12.0572 11.2192 12.0515 11.22C12.0351 11.2223 12.0186 11.2237 12.002 11.2238C12.0014 11.2238 12.0009 11.224 12.0003 11.224C12.0002 11.224 12.0001 11.2239 12 11.2239C11.9999 11.2239 11.9998 11.224 11.9997 11.224C11.9992 11.224 11.9987 11.2238 11.9981 11.2238C11.9815 11.2237 11.965 11.2223 11.9486 11.22C11.9429 11.2192 11.9373 11.2181 11.9317 11.2171C11.9193 11.2148 11.907 11.2118 11.8949 11.2083C11.8898 11.2068 11.8848 11.2055 11.8798 11.2038C11.8631 11.1982 11.8469 11.1916 11.8311 11.1836C11.8285 11.1823 11.8261 11.1807 11.8236 11.1794C11.8096 11.1719 11.7961 11.1635 11.7831 11.1542C11.7811 11.1527 11.7789 11.1518 11.7769 11.1503L10.5314 10.2281C10.4227 10.1475 10.3657 10.0146 10.3825 9.88029L10.9509 5.32239C10.8053 5.38947 10.6457 5.42502 10.4806 5.42502C10.1801 5.42502 9.89764 5.30804 9.68508 5.09554L7.38523 2.79574C7.1728 2.58322 7.05581 2.30074 7.05581 2.00031C7.05581 1.93739 7.06124 1.87531 7.07131 1.81445C6.12357 2.02354 5.25154 2.52531 4.59629 3.24396L1.98461 6.10851C1.86484 6.23984 1.85376 6.43727 1.95808 6.58119L4.18444 9.65306C4.30309 9.8168 4.53014 9.85699 4.69775 9.74393L6.6104 8.45399V15.0666C6.6104 15.2737 6.77829 15.4416 6.9854 15.4416H17.0147C17.2218 15.4416 17.3897 15.2737 17.3897 15.0666V8.45399L19.3023 9.74393C19.47 9.85695 19.697 9.81676 19.8156 9.65306L22.042 6.58119C22.1463 6.43727 22.1353 6.23984 22.0155 6.10851ZM15.3486 6.6461H14.2161C14.0089 6.6461 13.8411 6.4782 13.8411 6.2711C13.8411 6.06401 14.0089 5.8961 14.2161 5.8961H15.3486C15.5557 5.8961 15.7236 6.06401 15.7236 6.2711C15.7236 6.4782 15.5557 6.6461 15.3486 6.6461Z" fill="#888888"/>
<path d="M17.0157 16.9638H17.5557L17.4804 16.0898C17.3386 16.1544 17.1814 16.1907 17.0157 16.1907H15.5059C15.8168 16.7102 16.312 16.9638 17.0157 16.9638Z" fill="#888888"/>
<path d="M6.98644 16.9639C7.6901 16.9639 8.18531 16.7103 8.49627 16.1909H6.98644C6.83627 16.1909 6.69299 16.1611 6.56189 16.1074L6.52148 16.9639H6.98644Z" fill="#888888"/>
<path d="M17.6198 17.7145H17.0151C15.6815 17.7145 15.046 16.9815 14.7476 16.3666C14.7192 16.308 14.6934 16.2495 14.6699 16.1914H12.3754V19.0314C12.3754 19.2385 12.2076 19.4064 12.0004 19.4064C11.7933 19.4064 11.6254 19.2385 11.6254 19.0314V16.1914H9.33098C9.30748 16.2495 9.28167 16.308 9.25324 16.3666C8.95489 16.9815 8.31936 17.7145 6.9858 17.7145H6.48547L6.21135 23.5255C6.20652 23.6279 6.24383 23.7278 6.3146 23.802C6.38537 23.8762 6.48343 23.9182 6.58594 23.9182H11.0597C11.2373 23.9182 11.3906 23.7936 11.4268 23.6197L12.0004 20.8686L12.574 23.6197C12.6103 23.7936 12.7635 23.9182 12.9411 23.9182H17.7459C17.851 23.9182 17.9512 23.8741 18.0222 23.7967C18.0933 23.7193 18.1285 23.6156 18.1195 23.511L17.6198 17.7145Z" fill="#888888"/>
<path d="M16.0853 1.73479L14.5658 0.215286C14.4955 0.144974 14.4001 0.105469 14.3006 0.105469H9.70112C9.60167 0.105469 9.50627 0.144974 9.43596 0.215286L7.91648 1.73479C7.84615 1.80515 7.80664 1.9005 7.80664 1.99997C7.80664 2.09944 7.84615 2.19479 7.91648 2.26515L10.2162 4.56487C10.2895 4.63806 10.3854 4.67468 10.4814 4.67468C10.5774 4.67468 10.6733 4.63806 10.7466 4.56487L12.0009 3.31057L13.2552 4.56487C13.3284 4.63806 13.4244 4.67468 13.5204 4.67468C13.6163 4.67468 13.7123 4.63806 13.7855 4.56487L16.0853 2.26515C16.1556 2.19479 16.1951 2.09944 16.1951 1.99997C16.1951 1.9005 16.1556 1.80515 16.0853 1.73479ZM12.0009 2.24989L10.6065 0.855469H13.3953L12.0009 2.24989Z" fill="#888888"/>
</svg>
