<svg width="24" height="24" viewBox="0 0 24 24" fill="none" xmlns="http://www.w3.org/2000/svg">
<g clip-path="url(#clip0_735_18939)">
<path d="M6.99203 22.9957C8.20499 21.2514 8.88227 19.3272 9.23713 18.0186C9.29135 17.8186 9.49737 17.7006 9.69721 17.7548C9.89709 17.809 10.0152 18.015 9.96099 18.2149C9.58963 19.5844 8.87815 21.6023 7.59756 23.4385C7.59106 23.4478 7.58415 23.4568 7.57685 23.4655L7.44087 23.6271C8.49327 23.7877 9.85841 23.9024 11.6246 23.9167V14.6914H6.98496C6.80874 14.6914 6.65628 14.8141 6.61861 14.9863C6.60893 15.0306 5.6351 19.4394 4.41915 21.3335C4.23979 21.6129 4.19262 21.9549 4.28971 22.2718C4.38687 22.5889 4.61779 22.8461 4.92323 22.9772C5.30715 23.142 5.84451 23.3189 6.58903 23.4744L6.99203 22.9957Z" fill="#888888"/>
<path d="M19.5804 21.3335C18.3645 19.4394 17.3907 15.0306 17.381 14.9863C17.3433 14.8141 17.1909 14.6914 17.0146 14.6914H12.375V23.9167C14.1412 23.9024 15.5063 23.7877 16.5587 23.6271L16.4228 23.4655C16.4155 23.4568 16.4085 23.4478 16.402 23.4385C15.1214 21.6023 14.41 19.5844 14.0386 18.2149C13.9844 18.015 14.1025 17.809 14.3024 17.7548C14.5025 17.7005 14.7083 17.8187 14.7625 18.0186C15.1173 19.3272 15.7946 21.2514 17.0076 22.9957L17.4106 23.4744C18.1551 23.3189 18.6924 23.142 19.0764 22.9772C19.3818 22.8461 19.6127 22.5889 19.7099 22.2718C19.807 21.9549 19.7598 21.6129 19.5804 21.3335Z" fill="#888888"/>
<path d="M1.44486 13.1406L0.966299 14.4152C0.930777 14.5099 0.934965 14.6148 0.977926 14.7064C1.02086 14.7979 1.09896 14.8682 1.19447 14.9013L3.56827 15.7249C3.75378 15.7893 3.95751 15.6995 4.03542 15.5194L4.5431 14.3446L1.44486 13.1406Z" fill="#888888"/>
<path d="M10.1909 4.94279C10.1526 4.94279 10.1138 4.94219 10.076 4.941C8.79711 4.9017 7.69013 3.95722 7.38406 2.64422C7.32185 2.3773 7.29714 2.11079 7.3085 1.84961C6.12374 2.29437 5.16431 3.23533 4.71142 4.44158L1.70898 12.4385L4.84132 13.6557L6.61057 9.56176V14.007C6.72879 13.9646 6.85523 13.9416 6.98557 13.9416H11.6252V4.60958C11.1999 4.82773 10.7142 4.94279 10.1909 4.94279Z" fill="#888888"/>
<path d="M22.5553 13.1406L19.457 14.3446L19.9647 15.5194C20.0256 15.6602 20.1632 15.7457 20.309 15.7457C20.3498 15.7457 20.3913 15.739 20.4319 15.7249L22.8057 14.9013C22.9012 14.8682 22.9793 14.7979 23.0222 14.7064C23.0652 14.6148 23.0694 14.5099 23.0338 14.4152L22.5553 13.1406Z" fill="#888888"/>
<path d="M22.2912 12.4385L19.2888 4.44158C18.8359 3.23533 17.8765 2.29437 16.6917 1.84961C16.7031 2.11079 16.6784 2.37732 16.6161 2.64424C16.3101 3.95722 15.2031 4.9017 13.9245 4.941C13.8865 4.94219 13.8477 4.94279 13.8093 4.94279C13.286 4.94279 12.8003 4.82775 12.375 4.60963V13.9416H17.0146C17.145 13.9416 17.2714 13.9646 17.3896 14.007V9.56176L19.1589 13.6557L22.2912 12.4385ZM15.3485 5.91682H14.216C14.0089 5.91682 13.841 5.74891 13.841 5.54182C13.841 5.33472 14.0089 5.16682 14.216 5.16682H15.3485C15.5557 5.16682 15.7235 5.33472 15.7235 5.54182C15.7235 5.74891 15.5557 5.91682 15.3485 5.91682Z" fill="#888888"/>
<path d="M14.7917 0.149368C14.7382 0.120918 14.6799 0.107208 14.6217 0.10627C14.6195 0.106178 14.6179 0.105469 14.6156 0.105469H9.38311C9.37996 0.105469 9.37719 0.105972 9.37423 0.106224C9.31694 0.107574 9.25967 0.121376 9.20703 0.149368C8.30968 0.626587 7.89071 1.51721 8.11364 2.47362C8.34261 3.45589 9.15872 4.16212 10.0983 4.19101C10.1292 4.19197 10.1598 4.19243 10.1901 4.19243C11.0839 4.19243 11.6612 3.7828 11.9993 3.33913C12.3375 3.7828 12.9147 4.19243 13.8086 4.19243C13.8388 4.19243 13.8696 4.19197 13.9005 4.19101C14.84 4.16212 15.6561 3.45589 15.8851 2.47362C16.108 1.51721 15.6891 0.626587 14.7917 0.149368ZM11.9994 2.03373L10.4791 0.855469H13.5196L11.9994 2.03373Z" fill="#888888"/>
</g>
<defs>
<clipPath id="clip0_735_18939">
<rect width="24" height="24" fill="white"/>
</clipPath>
</defs>
</svg>
