<svg width="24" height="24" viewBox="0 0 24 24" fill="none" xmlns="http://www.w3.org/2000/svg">
<path d="M6.99398 22.9957C8.20694 21.2514 8.88423 19.3272 9.23908 18.0186C9.29331 17.8186 9.49932 17.7006 9.69916 17.7548C9.89904 17.809 10.0171 18.015 9.96295 18.2149C9.59159 19.5844 8.88011 21.6023 7.59951 23.4385C7.59301 23.4478 7.5861 23.4568 7.5788 23.4655L7.44283 23.6271C8.49523 23.7877 9.86037 23.9024 11.6266 23.9167V14.6914H6.98691C6.81069 14.6914 6.65824 14.8141 6.62056 14.9863C6.61088 15.0306 5.63706 19.4394 4.4211 21.3335C4.24175 21.6129 4.19457 21.9549 4.29167 22.2718C4.38883 22.5889 4.61975 22.8461 4.92519 22.9772C5.3091 23.142 5.84646 23.3189 6.59098 23.4744L6.99398 22.9957Z" fill="#D62454"/>
<path d="M19.5824 21.3335C18.3664 19.4394 17.3926 15.0306 17.3829 14.9863C17.3453 14.8141 17.1928 14.6914 17.0166 14.6914H12.377V23.9167C14.1431 23.9024 15.5083 23.7877 16.5607 23.6271L16.4247 23.4655C16.4174 23.4568 16.4105 23.4478 16.404 23.4385C15.1234 21.6023 14.4119 19.5844 14.0406 18.2149C13.9864 18.015 14.1045 17.809 14.3043 17.7548C14.5044 17.7005 14.7102 17.8187 14.7644 18.0186C15.1193 19.3272 15.7966 21.2514 17.0095 22.9957L17.4125 23.4744C18.157 23.3189 18.6944 23.142 19.0783 22.9772C19.3838 22.8461 19.6147 22.5889 19.7118 22.2718C19.8089 21.9549 19.7618 21.6129 19.5824 21.3335Z" fill="#D62454"/>
<path d="M1.44584 13.1406L0.967276 14.4152C0.931753 14.5099 0.935942 14.6148 0.978903 14.7064C1.02184 14.7979 1.09994 14.8682 1.19545 14.9013L3.56925 15.7249C3.75476 15.7893 3.95849 15.6995 4.0364 15.5194L4.54408 14.3446L1.44584 13.1406Z" fill="#D62454"/>
<path d="M10.1909 4.94279C10.1526 4.94279 10.1138 4.94219 10.076 4.941C8.79711 4.9017 7.69013 3.95722 7.38406 2.64422C7.32185 2.3773 7.29714 2.11079 7.3085 1.84961C6.12374 2.29437 5.16431 3.23533 4.71142 4.44158L1.70898 12.4385L4.84132 13.6557L6.61057 9.56176V14.007C6.72879 13.9646 6.85523 13.9416 6.98557 13.9416H11.6252V4.60958C11.1999 4.82773 10.7142 4.94279 10.1909 4.94279Z" fill="#D62454"/>
<path d="M22.5553 13.1406L19.457 14.3446L19.9647 15.5194C20.0256 15.6602 20.1632 15.7457 20.309 15.7457C20.3498 15.7457 20.3913 15.739 20.4319 15.7249L22.8057 14.9013C22.9012 14.8682 22.9793 14.7979 23.0222 14.7064C23.0652 14.6148 23.0694 14.5099 23.0338 14.4152L22.5553 13.1406Z" fill="#D62454"/>
<path d="M22.2912 12.4385L19.2888 4.44158C18.8359 3.23533 17.8765 2.29437 16.6917 1.84961C16.7031 2.11079 16.6784 2.37732 16.6161 2.64424C16.3101 3.95722 15.2031 4.9017 13.9245 4.941C13.8865 4.94219 13.8477 4.94279 13.8093 4.94279C13.286 4.94279 12.8003 4.82775 12.375 4.60963V13.9416H17.0146C17.145 13.9416 17.2714 13.9646 17.3896 14.007V9.56176L19.1589 13.6557L22.2912 12.4385ZM15.3485 5.91682H14.216C14.0089 5.91682 13.841 5.74891 13.841 5.54182C13.841 5.33472 14.0089 5.16682 14.216 5.16682H15.3485C15.5557 5.16682 15.7235 5.33472 15.7235 5.54182C15.7235 5.74891 15.5557 5.91682 15.3485 5.91682Z" fill="#D62454"/>
<path d="M14.7937 0.149368C14.7401 0.120918 14.6818 0.107208 14.6236 0.10627C14.6215 0.106178 14.6198 0.105469 14.6176 0.105469H9.38506C9.38191 0.105469 9.37915 0.105972 9.37618 0.106224C9.3189 0.107574 9.26162 0.121376 9.20899 0.149368C8.31163 0.626587 7.89266 1.51721 8.11559 2.47362C8.34457 3.45589 9.16067 4.16212 10.1002 4.19101C10.1312 4.19197 10.1618 4.19243 10.1921 4.19243C11.0858 4.19243 11.6631 3.7828 12.0013 3.33913C12.3394 3.7828 12.9167 4.19243 13.8106 4.19243C13.8408 4.19243 13.8715 4.19197 13.9024 4.19101C14.842 4.16212 15.6581 3.45589 15.887 2.47362C16.11 1.51721 15.691 0.626587 14.7937 0.149368ZM12.0013 2.03373L10.4811 0.855469H13.5216L12.0013 2.03373Z" fill="#D62454"/>
</svg>
