<svg width="44" height="44" viewBox="0 0 44 44" fill="none" xmlns="http://www.w3.org/2000/svg">
<path d="M22 43.5C33.8741 43.5 43.5 33.8741 43.5 22C43.5 10.1259 33.8741 0.5 22 0.5C10.1259 0.5 0.5 10.1259 0.5 22C0.5 33.8741 10.1259 43.5 22 43.5Z" fill="#9F1B32"/>
<path d="M19 34C18.4696 34 17.9609 33.7893 17.5858 33.4142C17.2107 33.0391 17 32.5304 17 32C17 31.4696 17.2107 30.9609 17.5858 30.5858C17.9609 30.2107 18.4696 30 19 30H25C25.5304 30 26.0391 30.2107 26.4142 30.5858C26.7893 30.9609 27 31.4696 27 32C27 32.5304 26.7893 33.0391 26.4142 33.4142C26.0391 33.7893 25.5304 34 25 34H19Z" fill="white"/>
<path d="M21.9999 34C21.4695 34 20.9608 33.7893 20.5857 33.4142C20.2106 33.0391 19.9999 32.5304 19.9999 32V19.732C19.6187 19.5119 19.3207 19.1721 19.1522 18.7653C18.9838 18.3586 18.9542 17.9076 19.0682 17.4824C19.1821 17.0571 19.4332 16.6813 19.7824 16.4133C20.1317 16.1453 20.5597 16 20.9999 16H21.9999C22.5303 16 23.0391 16.2107 23.4141 16.5858C23.7892 16.9609 23.9999 17.4696 23.9999 18V32C23.9999 32.5304 23.7892 33.0391 23.4141 33.4142C23.0391 33.7893 22.5303 34 21.9999 34Z" fill="white"/>
<path d="M22 14.5C23.3807 14.5 24.5 13.3807 24.5 12C24.5 10.6193 23.3807 9.5 22 9.5C20.6193 9.5 19.5 10.6193 19.5 12C19.5 13.3807 20.6193 14.5 22 14.5Z" fill="white"/>
</svg>
