<svg width="132" height="136" viewBox="0 0 132 136" fill="none" xmlns="http://www.w3.org/2000/svg">
<path d="M21.384 27.072H24.36C25.576 23.872 26.424 21.776 26.904 20.784C29.432 15.472 32.648 12.816 36.552 12.816C37.64 12.816 38.664 13.056 39.624 13.536C40.776 14.144 41.352 14.944 41.352 15.936C41.352 16.928 40.888 17.424 39.96 17.424C39.256 17.424 38.776 17.088 38.52 16.416C38.52 16.096 38.44 15.632 38.28 15.024C37.896 14.32 37.24 13.968 36.312 13.968C33.048 13.968 30.216 18.336 27.816 27.072H31.704C31.992 27.072 32.136 27.184 32.136 27.408C32.104 27.44 32.024 27.648 31.896 28.032C31.8 28.384 31.624 28.576 31.368 28.608H27.432C24.232 38.496 21.88 45.344 20.376 49.152C19.416 51.552 18.472 53.52 17.544 55.056C15.528 58.352 12.92 60 9.72 60C8.408 60 7.16 59.712 5.976 59.136C4.536 58.4 3.816 57.44 3.816 56.256C3.816 55.264 4.328 54.768 5.352 54.768C6.536 54.768 7.368 55.664 7.848 57.456C8.072 58.288 8.664 58.704 9.624 58.704C11.384 58.704 12.984 57.632 14.424 55.488C15.512 53.888 16.552 51.648 17.544 48.768C18.12 46.816 18.712 44.864 19.32 42.912L23.928 28.56H20.952C20.632 28.56 20.472 28.464 20.472 28.272C20.472 28.176 20.536 27.92 20.664 27.504C20.792 27.216 21.032 27.072 21.384 27.072ZM40.392 27.168C42.28 27.104 43.752 27.872 44.808 29.472C45.704 30.848 46.152 32.544 46.152 34.56C46.152 37.568 45.192 40.544 43.272 43.488C41.096 46.784 38.584 48.432 35.736 48.432C33.912 48.432 32.488 47.584 31.464 45.888C30.6 44.48 30.168 42.8 30.168 40.848C30.168 38 31.144 35.104 33.096 32.16C35.24 28.928 37.672 27.264 40.392 27.168ZM40.248 28.368C38.392 28.496 36.712 30.448 35.208 34.224C33.96 37.424 33.336 40.16 33.336 42.432C33.336 43.552 33.512 44.544 33.864 45.408C34.312 46.624 35.016 47.232 35.976 47.232C37.672 47.232 39.288 45.504 40.824 42.048C42.232 38.88 42.936 35.888 42.936 33.072C42.936 31.92 42.76 30.912 42.408 30.048C41.96 28.864 41.24 28.304 40.248 28.368ZM54.984 34.176C57.608 29.504 60.184 27.168 62.712 27.168C63.256 27.168 63.768 27.312 64.248 27.6C64.76 27.888 65.016 28.288 65.016 28.8C65.016 29.312 64.856 29.808 64.536 30.288C64.216 30.736 63.816 30.96 63.336 30.96C63.08 30.96 62.808 30.864 62.52 30.672C61.656 30.096 61.096 29.808 60.84 29.808C59.688 29.808 58.328 31.04 56.76 33.504C55.672 35.2 54.792 36.928 54.12 38.688C54.024 38.912 53.928 39.152 53.832 39.408C53.352 40.72 52.616 42.96 51.624 46.128C51.368 46.96 51.096 47.504 50.808 47.76C50.552 48.016 50.008 48.144 49.176 48.144C48.344 48.144 47.928 47.808 47.928 47.136C47.928 46.88 48.344 45.664 49.176 43.488L50.712 39.408C52.248 34.736 53.016 31.76 53.016 30.48C53.016 29.776 52.76 29.424 52.248 29.424C51.576 29.424 50.328 30.8 48.504 33.552C48.248 33.936 48.072 34.128 47.976 34.128C47.848 34.128 47.672 34.064 47.448 33.936C47.224 33.808 47.112 33.68 47.112 33.552C47.112 33.072 47.864 31.952 49.368 30.192C51.096 28.144 52.664 27.12 54.072 27.12C55.384 27.12 56.04 27.68 56.04 28.8C56.04 29.568 55.864 30.72 55.512 32.256C55.16 33.76 54.984 34.4 54.984 34.176Z" fill="white"/>
<path d="M48.1992 104.305C48.1992 100.227 46.582 97.1094 43.3477 94.9531C40.1133 92.7969 35.8828 91.6133 30.6562 91.4023C33.3516 91.2617 35.8594 90.7695 38.1797 89.9258C40.5234 89.0586 42.4102 87.8281 43.8398 86.2344C45.293 84.6172 46.0195 82.6367 46.0195 80.293C46.0195 76.2617 44.0625 73.25 40.1484 71.2578C36.2578 69.2422 30.9258 68.2344 24.1523 68.2344H1.86328V69.957C3.19922 70.1914 4.20703 70.4844 4.88672 70.8359C5.56641 71.1641 6.02344 71.6328 6.25781 72.2422C6.49219 72.8281 6.60938 73.6484 6.60938 74.7031V112.531C6.60938 113.586 6.48047 114.418 6.22266 115.027C5.98828 115.613 5.53125 116.082 4.85156 116.434C4.19531 116.762 3.19922 117.043 1.86328 117.277V119H24.1523C27.2695 119 30.2578 118.707 33.1172 118.121C36 117.535 38.5664 116.645 40.8164 115.449C43.0898 114.23 44.8828 112.695 46.1953 110.844C47.5312 108.992 48.1992 106.812 48.1992 104.305ZM35.0508 104.832C35.0508 108.535 33.9023 111.441 31.6055 113.551C29.332 115.637 26.0508 116.75 21.7617 116.891L19.0898 116.996V93.1602L23.5898 93.2656C27.3164 93.3125 30.1523 94.4258 32.0977 96.6055C34.0664 98.7617 35.0508 101.504 35.0508 104.832ZM33.3984 81.0312C33.3984 84.3828 32.543 86.8906 30.832 88.5547C29.1211 90.2188 26.707 91.0742 23.5898 91.1211L19.0898 91.1562V70.2383L21.7617 70.3438C25.8398 70.4609 28.793 71.5039 30.6211 73.4727C32.4727 75.4414 33.3984 77.9609 33.3984 81.0312ZM72.9492 119.703C76.7227 119.703 80.0977 118.93 83.0742 117.383C86.0508 115.836 88.4062 113.68 90.1406 110.914C91.875 108.148 92.7422 104.973 92.7422 101.387C92.7422 97.707 91.8867 94.5312 90.1758 91.8594C88.4648 89.1641 86.1211 87.0781 83.1445 85.6016C80.1914 84.125 76.8398 83.3867 73.0898 83.3867C69.3398 83.3867 65.9648 84.1602 62.9648 85.707C59.9883 87.2539 57.6328 89.3984 55.8984 92.1406C54.1875 94.8828 53.332 98.0586 53.332 101.668C53.332 105.324 54.1875 108.512 55.8984 111.23C57.6328 113.926 59.9648 116.012 62.8945 117.488C65.8477 118.965 69.1992 119.703 72.9492 119.703ZM73.1953 117.383C71.625 117.383 70.2656 116.738 69.1172 115.449C67.9922 114.16 67.1133 112.32 66.4805 109.93C65.8711 107.516 65.5664 104.633 65.5664 101.281C65.5664 96.4297 66.1875 92.6211 67.4297 89.8555C68.6719 87.0898 70.4883 85.707 72.8789 85.707C74.4492 85.707 75.7969 86.3516 76.9219 87.6406C78.0469 88.9297 78.9141 90.7695 79.5234 93.1602C80.1562 95.5508 80.4727 98.4219 80.4727 101.773C80.4727 106.625 79.8516 110.445 78.6094 113.234C77.3672 116 75.5625 117.383 73.1953 117.383ZM98.7188 91.5781L110.953 120.723C110.086 122.246 109.031 123.898 107.789 125.68C106.547 127.461 105.258 129.172 103.922 130.812C102.609 132.453 101.379 133.859 100.23 135.031V135.172H108.703L114.012 120.301L118.688 109.156L125.473 92.5977C126.199 90.8398 126.832 89.5156 127.371 88.625C127.91 87.7109 128.484 87.0664 129.094 86.6914C129.727 86.293 130.523 86 131.484 85.8125V84.0547H119.602V85.8125C121.57 86.0938 122.73 86.6445 123.082 87.4648C123.434 88.2852 123.188 89.9023 122.344 92.3164L116.473 109.156H117.352L111.41 92.1758C110.59 89.832 110.344 88.25 110.672 87.4297C111.023 86.6094 112.207 86.0703 114.223 85.8125V84.0547H93.3047V85.8125C94.2422 86 94.9922 86.2695 95.5547 86.6211C96.1406 86.9727 96.668 87.5352 97.1367 88.3086C97.6055 89.0586 98.1328 90.1484 98.7188 91.5781Z" fill="white"/>
</svg>
