<svg width="133" height="133" viewBox="0 0 133 133" fill="none" xmlns="http://www.w3.org/2000/svg">
<path d="M21.384 27.072H24.36C25.576 23.872 26.424 21.776 26.904 20.784C29.432 15.472 32.648 12.816 36.552 12.816C37.64 12.816 38.664 13.056 39.624 13.536C40.776 14.144 41.352 14.944 41.352 15.936C41.352 16.928 40.888 17.424 39.96 17.424C39.256 17.424 38.776 17.088 38.52 16.416C38.52 16.096 38.44 15.632 38.28 15.024C37.896 14.32 37.24 13.968 36.312 13.968C33.048 13.968 30.216 18.336 27.816 27.072H31.704C31.992 27.072 32.136 27.184 32.136 27.408C32.104 27.44 32.024 27.648 31.896 28.032C31.8 28.384 31.624 28.576 31.368 28.608H27.432C24.232 38.496 21.88 45.344 20.376 49.152C19.416 51.552 18.472 53.52 17.544 55.056C15.528 58.352 12.92 60 9.72 60C8.408 60 7.16 59.712 5.976 59.136C4.536 58.4 3.816 57.44 3.816 56.256C3.816 55.264 4.328 54.768 5.352 54.768C6.536 54.768 7.368 55.664 7.848 57.456C8.072 58.288 8.664 58.704 9.624 58.704C11.384 58.704 12.984 57.632 14.424 55.488C15.512 53.888 16.552 51.648 17.544 48.768C18.12 46.816 18.712 44.864 19.32 42.912L23.928 28.56H20.952C20.632 28.56 20.472 28.464 20.472 28.272C20.472 28.176 20.536 27.92 20.664 27.504C20.792 27.216 21.032 27.072 21.384 27.072ZM40.392 27.168C42.28 27.104 43.752 27.872 44.808 29.472C45.704 30.848 46.152 32.544 46.152 34.56C46.152 37.568 45.192 40.544 43.272 43.488C41.096 46.784 38.584 48.432 35.736 48.432C33.912 48.432 32.488 47.584 31.464 45.888C30.6 44.48 30.168 42.8 30.168 40.848C30.168 38 31.144 35.104 33.096 32.16C35.24 28.928 37.672 27.264 40.392 27.168ZM40.248 28.368C38.392 28.496 36.712 30.448 35.208 34.224C33.96 37.424 33.336 40.16 33.336 42.432C33.336 43.552 33.512 44.544 33.864 45.408C34.312 46.624 35.016 47.232 35.976 47.232C37.672 47.232 39.288 45.504 40.824 42.048C42.232 38.88 42.936 35.888 42.936 33.072C42.936 31.92 42.76 30.912 42.408 30.048C41.96 28.864 41.24 28.304 40.248 28.368ZM54.984 34.176C57.608 29.504 60.184 27.168 62.712 27.168C63.256 27.168 63.768 27.312 64.248 27.6C64.76 27.888 65.016 28.288 65.016 28.8C65.016 29.312 64.856 29.808 64.536 30.288C64.216 30.736 63.816 30.96 63.336 30.96C63.08 30.96 62.808 30.864 62.52 30.672C61.656 30.096 61.096 29.808 60.84 29.808C59.688 29.808 58.328 31.04 56.76 33.504C55.672 35.2 54.792 36.928 54.12 38.688C54.024 38.912 53.928 39.152 53.832 39.408C53.352 40.72 52.616 42.96 51.624 46.128C51.368 46.96 51.096 47.504 50.808 47.76C50.552 48.016 50.008 48.144 49.176 48.144C48.344 48.144 47.928 47.808 47.928 47.136C47.928 46.88 48.344 45.664 49.176 43.488L50.712 39.408C52.248 34.736 53.016 31.76 53.016 30.48C53.016 29.776 52.76 29.424 52.248 29.424C51.576 29.424 50.328 30.8 48.504 33.552C48.248 33.936 48.072 34.128 47.976 34.128C47.848 34.128 47.672 34.064 47.448 33.936C47.224 33.808 47.112 33.68 47.112 33.552C47.112 33.072 47.864 31.952 49.368 30.192C51.096 28.144 52.664 27.12 54.072 27.12C55.384 27.12 56.04 27.68 56.04 28.8C56.04 29.568 55.864 30.72 55.512 32.256C55.16 33.76 54.984 34.4 54.984 34.176Z" fill="#141414"/>
<path d="M2.91797 93.6172C2.91797 97.5312 3.58594 101.094 4.92188 104.305C6.25781 107.516 8.15625 110.281 10.6172 112.602C13.1016 114.898 16.043 116.68 19.4414 117.945C22.8398 119.188 26.6016 119.809 30.7266 119.809C34.4062 119.809 37.9453 119.375 41.3438 118.508C44.7656 117.617 47.5312 116.398 49.6406 114.852V100.438C49.6406 99.3828 49.7578 98.5625 49.9922 97.9766C50.2266 97.3906 50.6602 96.957 51.293 96.6758C51.9492 96.3711 52.8984 96.1367 54.1406 95.9727V94.25H33.7852V95.9727C35.1211 96.1367 36.1289 96.3711 36.8086 96.6758C37.4883 96.957 37.9453 97.3906 38.1797 97.9766C38.4141 98.5625 38.5312 99.3828 38.5312 100.438V115.344C37.8281 115.93 36.8438 116.422 35.5781 116.82C34.3359 117.219 32.9297 117.418 31.3594 117.418C28.9688 117.418 26.8594 116.773 25.0312 115.484C23.2266 114.172 21.7031 112.391 20.4609 110.141C19.2422 107.891 18.3164 105.312 17.6836 102.406C17.0508 99.4766 16.7344 96.3828 16.7344 93.125C16.7344 88.4609 17.3203 84.3828 18.4922 80.8906C19.6875 77.3984 21.4102 74.6797 23.6602 72.7344C25.9336 70.7891 28.6523 69.8164 31.8164 69.8164C34.3477 69.8164 36.5625 70.4492 38.4609 71.7148C40.3828 72.9805 41.9883 74.7148 43.2773 76.918C44.5898 79.0977 45.5508 81.5938 46.1602 84.4062H47.8125L47.4609 70.6602C46.0312 69.6992 43.9336 68.9258 41.168 68.3398C38.4023 67.7305 35.1094 67.4258 31.2891 67.4258C27.375 67.4258 23.6953 67.9883 20.25 69.1133C16.8281 70.2383 13.8164 71.9023 11.2148 74.1055C8.63672 76.3086 6.60938 79.0391 5.13281 82.2969C3.65625 85.5547 2.91797 89.3281 2.91797 93.6172ZM72.1406 83.5977L56.5312 85.4961V87.1133L58.3242 87.6758C59.3086 88.0039 59.9297 88.3789 60.1875 88.8008C60.4453 89.2227 60.5742 89.9961 60.5742 91.1211V113.41C60.5742 114.676 60.3281 115.566 59.8359 116.082C59.3438 116.574 58.2422 116.973 56.5312 117.277V119H76.1836V117.277C74.4727 116.973 73.3711 116.574 72.8789 116.082C72.3867 115.566 72.1406 114.676 72.1406 113.41V83.5977ZM65.707 78.9922C67.3477 78.9922 68.7422 78.4648 69.8906 77.4102C71.0391 76.332 71.6133 75.0078 71.6133 73.4375C71.6133 71.8203 71.0391 70.4961 69.8906 69.4648C68.7422 68.4102 67.3477 67.8828 65.707 67.8828C64.0898 67.8828 62.6953 68.4102 61.5234 69.4648C60.375 70.4961 59.8008 71.8203 59.8008 73.4375C59.8008 75.0078 60.375 76.332 61.5234 77.4102C62.6953 78.4648 64.0898 78.9922 65.707 78.9922ZM94.7109 83.5977L79.1719 85.4961V87.1133L80.9648 87.6758C81.9258 88.0039 82.5352 88.3789 82.793 88.8008C83.0742 89.2227 83.2148 89.9961 83.2148 91.1211V113.48C83.2148 114.723 82.9688 115.602 82.4766 116.117C82.0078 116.609 80.9062 116.996 79.1719 117.277V119H99.2812V117.277C97.9922 117.066 97.0195 116.82 96.3633 116.539C95.7305 116.234 95.3086 115.824 95.0977 115.309C94.8867 114.77 94.7812 114.043 94.7812 113.129V94.707C95.5547 93.9805 96.7383 93.4062 98.332 92.9844C99.9492 92.5625 101.625 92.3516 103.359 92.3516C104.367 92.3516 105.34 92.4219 106.277 92.5625C107.215 92.7031 107.93 92.8672 108.422 93.0547C108.633 92.6328 108.82 92.082 108.984 91.4023C109.148 90.6992 109.23 89.9727 109.23 89.2227C109.23 87.6289 108.844 86.2812 108.07 85.1797C107.32 84.0781 106.148 83.5273 104.555 83.5273C102.797 83.5273 101.133 84.3242 99.5625 85.918C97.9922 87.4883 96.3633 90.0195 94.6758 93.5117L94.7109 83.5977ZM126.844 66.3359L111.234 68.2344V69.8516L113.027 70.4492C114.012 70.7773 114.633 71.1523 114.891 71.5742C115.148 71.9727 115.277 72.7461 115.277 73.8945V113.41C115.277 114.676 115.031 115.566 114.539 116.082C114.047 116.574 112.945 116.973 111.234 117.277V119H130.887V117.277C129.176 116.973 128.074 116.574 127.582 116.082C127.09 115.566 126.844 114.676 126.844 113.41V66.3359Z" fill="#141414"/>
</svg>
