<svg width="200" height="28" viewBox="0 0 200 28" fill="none" xmlns="http://www.w3.org/2000/svg">
<path d="M0.841797 0.501953H17.3916V5.54269H6.79682V10.8778H15.8207V15.9185H6.79682V22.063H17.7935V27.1038H0.841797V0.501953Z" fill="#182F58"/>
<path d="M21.3376 23.7557L24.7718 19.6348C26.6351 21.2905 29.0828 22.4311 31.2749 22.4311C33.7592 22.4311 35.0013 21.4377 35.0013 19.8555C35.0013 18.163 33.5034 17.6479 31.2018 16.6913L27.7676 15.2195C25.0276 14.1157 22.4337 11.8345 22.4337 7.97119C22.4337 3.55595 26.3428 0.0605469 31.8594 0.0605469C34.8917 0.0605469 38.0702 1.27474 40.3718 3.55595L37.3395 7.3457C35.5859 5.98433 33.9418 5.24845 31.8594 5.24845C29.8135 5.24845 28.4983 6.09471 28.4983 7.64004C28.4983 9.25897 30.2154 9.84767 32.517 10.8043L35.8781 12.1657C39.0931 13.4902 41.1025 15.6243 41.1025 19.414C41.1025 23.8293 37.4491 27.6558 31.1653 27.6558C27.6945 27.619 24.0412 26.2944 21.3376 23.7557Z" fill="#182F58"/>
<path d="M42.1619 0.501953H48.4822L51.6607 12.9014C52.4644 15.8081 52.9759 18.4941 53.7796 21.4376H53.9258C54.7295 18.4941 55.2775 15.8081 56.0447 12.9014L59.1501 0.501953H65.2513L57.2869 27.1038H50.1262L42.1619 0.501953Z" fill="#182F58"/>
<path d="M68.1006 0.501953H74.0921V27.1038H68.1371V0.501953H68.1006Z" fill="#182F58"/>
<path d="M80.3027 0.501953H96.8526V5.54269H86.2578V10.8778H95.2816V15.9185H86.2578V22.063H97.2544V27.1038H80.3027V0.501953Z" fill="#182F58"/>
<path d="M107.703 5.54269H100.433V0.501953H120.929V5.54269H113.658V27.1038H107.703V5.54269Z" fill="#182F58"/>
<path d="M125.057 0.501953H131.195L138.1 13.7477L140.73 19.5979H140.876C140.584 16.8015 140.109 13.0486 140.109 9.92113V0.501953H145.808V27.1038H139.671L132.766 13.8213L130.135 8.00786H129.989C130.281 10.9514 130.756 14.5203 130.756 17.6478V27.1038H125.057V0.501953Z" fill="#182F58"/>
<path d="M156.915 0.501953H164.075L172.368 27.1038H166.048L162.577 13.6373C161.847 10.9882 161.152 7.82389 160.422 5.06437H160.276C159.655 7.86069 158.924 10.9882 158.193 13.6373L154.722 27.1038H148.621L156.915 0.501953ZM154.101 16.1025H166.815V20.7753H154.101V16.1025Z" fill="#182F58"/>
<path d="M175.218 0.501953H181.721L185.996 12.3127C186.507 13.8949 186.982 15.5874 187.53 17.2063H187.676C188.188 15.5874 188.662 13.8581 189.174 12.3127L193.339 0.501953H199.842V27.1038H194.398V17.3535C194.398 14.7779 194.873 10.8778 195.166 8.30221H195.019L192.864 14.5939L189.137 24.7858H185.813L182.086 14.5939L179.967 8.30221H179.821C180.114 10.8778 180.589 14.7411 180.589 17.3535V27.1038H175.218V0.501953Z" fill="#182F58"/>
</svg>
