<svg width="28" height="28" viewBox="0 0 28 28" fill="none" xmlns="http://www.w3.org/2000/svg">
<g clip-path="url(#clip0_1209_253)">
<path d="M28.0007 14C28.0007 21.7317 21.7324 28 14 28H13.9738C6.25381 27.9855 0 21.7214 0 14C0 6.27865 6.25381 0.0137992 13.9738 0H14C21.7324 0 28.0007 6.26623 28.0007 14Z" fill="black"/>
<path d="M13.9738 0V28C6.25381 27.9855 0 21.7214 0 14C0 6.27865 6.25381 0.0137992 13.9738 0Z" fill="#0C0C0C"/>
<path d="M21.6178 10.1247L21.6005 12.9929C21.0416 12.9861 20.4856 12.9115 19.9446 12.7707C19.1101 12.5527 18.323 12.1824 17.6229 11.6785C17.6229 11.9718 17.6271 12.4092 17.6271 12.9411C17.6271 13.649 17.6271 14.0513 17.6229 14.4784C17.6105 17.1168 17.676 17.6274 17.4442 18.6706C17.396 18.9222 17.33 19.17 17.2469 19.4123C16.8012 20.6542 15.8297 21.6491 14.8396 22.1783C14.5633 22.3252 14.2733 22.4447 13.9737 22.5351C12.1025 23.1022 9.85395 22.604 8.69344 21.2241L8.68585 21.2158L8.67688 21.2041C7.69092 20.0146 7.47565 18.16 7.45495 17.6853C7.45495 17.6246 7.45082 17.5653 7.45082 17.5653C7.43563 16.9168 7.52891 16.2704 7.7268 15.6527C7.92689 15.0138 8.5858 13.6801 10.0658 12.8701C10.9888 12.3729 12.0423 12.1713 13.0837 12.2926L13.0498 15.1952C12.9912 15.1801 11.5733 14.8441 10.6426 15.81C9.79944 16.6849 9.85395 18.0945 10.4521 18.8927C10.4839 18.9355 10.5177 18.9769 10.5529 19.0156C10.8875 19.3888 11.3118 19.5289 11.5982 19.6269C11.9778 19.752 12.3763 19.8103 12.7759 19.7994C13.204 19.7927 13.6204 19.6589 13.9723 19.4151C14.9452 18.7541 15.0763 17.577 15.0811 17.5101C15.0691 13.7208 15.0579 9.93154 15.0473 6.14227V6.13882L16.8709 6.10639H16.9005L17.1648 6.10156C17.3596 6.8028 17.6899 7.45911 18.1369 8.03345C18.2778 8.21309 18.4299 8.38363 18.5923 8.54402C19.206 9.14131 19.9432 9.5968 20.7519 9.87841H20.7574C21.038 9.98093 21.3255 10.0632 21.6178 10.1247Z" fill="#FD2854"/>
<path d="M20.7933 11.422H20.7878C19.8057 11.5794 18.8004 11.503 17.8534 11.1992C17.1921 10.9842 16.5713 10.6603 16.0167 10.2408C16.3492 12.251 16.3492 14.3022 16.0167 16.3125C15.6227 18.6749 15.3757 20.1556 14.0572 21.1029C14.0296 21.1229 14.0013 21.1429 13.973 21.1615C12.1522 22.3945 9.60832 21.7825 8.67618 21.2022L8.66239 21.1939L8.63617 21.1774C8.32892 20.9738 8.04072 20.7429 7.7751 20.4874C7.29894 20.0255 6.91898 19.4739 6.65715 18.8644C6.39532 18.2549 6.2568 17.5995 6.24959 16.9362C6.23187 16.2491 6.34593 15.565 6.5856 14.9208C6.74084 14.5068 7.31765 13.0345 8.92457 12.1382C9.95354 11.574 11.1425 11.3728 12.2999 11.5669C12.2953 11.7969 12.2909 12.0269 12.2868 12.2569V12.2617L12.2598 13.7175C11.7562 13.5988 11.2356 13.5699 10.7219 13.632C10.3079 13.683 9.90224 13.7306 9.47102 14.0018C8.91874 14.3573 8.52785 14.9151 8.38226 15.5556C8.29012 15.8658 8.27123 16.1931 8.32706 16.5119C8.34362 16.6029 8.46506 17.2356 8.97563 17.6896C9.14743 17.8421 9.22056 17.8483 9.47102 18.0822C9.69181 18.2892 9.747 18.3886 9.94916 18.5604C9.94916 18.5604 9.99884 18.6025 10.0803 18.6618C10.0855 18.6663 10.091 18.6705 10.0968 18.6742C10.2081 18.7556 10.325 18.8292 10.4466 18.8943C10.9524 19.1593 11.8576 19.1875 12.5213 18.8653C13.4397 18.4189 13.9406 17.3923 13.9385 16.7823C13.9275 12.9917 13.9162 9.20128 13.9047 5.41109H13.9682L16.7846 5.39453C16.7826 5.61422 16.813 5.833 16.875 6.04378C16.8819 6.06655 16.8888 6.08794 16.8964 6.11278C16.904 6.13762 16.9088 6.14935 16.915 6.1666C16.9587 6.28126 17.0092 6.39323 17.0661 6.50192L17.1054 6.58126V6.58747C17.1048 6.58926 17.1048 6.59121 17.1054 6.59299L17.1116 6.6061L17.1179 6.61852C17.1216 6.62655 17.1257 6.63438 17.1303 6.64198C17.1344 6.65095 17.1392 6.65992 17.1441 6.66889C17.1703 6.71926 17.2062 6.78549 17.2469 6.86001C17.2724 6.90624 17.2993 6.95246 17.3269 6.998L17.3566 7.04699C17.3711 7.07183 17.3863 7.09666 17.4014 7.12081L17.4566 7.20844C17.6712 7.54721 18.0479 8.11781 18.582 8.54903C19.3326 9.15482 20.1951 9.32593 20.736 9.37699C20.7395 9.54672 20.7436 9.71645 20.7471 9.88618C20.7673 10.3986 20.7827 10.9105 20.7933 11.422Z" fill="#24F6FA"/>
<path d="M20.8024 12.2321C19.3807 12.2842 17.9848 11.8422 16.8523 10.9812V17.0528C16.8385 17.2854 16.635 19.8499 14.3181 21.2616C14.2036 21.3306 14.0884 21.3948 13.9731 21.4541C11.7935 22.5663 9.66364 21.6949 9.4532 21.6045C9.24396 21.5361 9.04343 21.4435 8.85569 21.3285C8.79704 21.292 8.73978 21.254 8.68527 21.2147L8.63628 21.1781C7.21496 20.099 7.15632 17.9008 7.14735 17.5765C7.13216 16.9281 7.22544 16.2817 7.42333 15.664C7.65792 14.9153 8.35823 13.6534 9.7623 12.8813C10.537 12.4597 11.4077 12.2458 12.2896 12.2604V12.2652C12.2781 12.9943 12.2666 13.7236 12.2551 14.4531C12.1068 14.4131 11.1974 14.184 10.3087 14.7435C9.75647 15.099 9.36558 15.6569 9.21999 16.2973C9.13288 16.6082 9.11405 16.9342 9.16479 17.2529C9.24358 17.6466 9.42931 18.0108 9.70158 18.3058C9.81605 18.4376 9.94392 18.5572 10.0831 18.6625C10.0884 18.667 10.0939 18.6712 10.0997 18.6749C10.209 18.7593 10.3262 18.833 10.4495 18.895L10.4536 18.8985C10.7002 19.2708 11.0558 19.5578 11.4719 19.7201C11.8879 19.8824 12.3439 19.9121 12.7774 19.8051C12.9794 19.7629 13.1756 19.6967 13.3618 19.6078C13.5874 19.5005 13.794 19.3575 13.9738 19.1841C14.6721 18.5128 14.7742 17.5841 14.779 17.5282L14.7486 6.15146L15.0522 6.14525L16.8758 6.10938H16.902C16.9089 6.12731 16.9165 6.14525 16.9241 6.16319C16.9662 6.26462 17.0166 6.37708 17.0752 6.49851L17.1145 6.57786V6.58407C17.1139 6.58585 17.1139 6.5878 17.1145 6.58959L17.1207 6.6027L17.1269 6.61512C17.1307 6.62314 17.1348 6.63097 17.1394 6.63858C17.1435 6.64754 17.1483 6.65651 17.1532 6.66548C17.1849 6.72758 17.2222 6.79175 17.256 6.8566C17.2815 6.90283 17.3084 6.94906 17.336 6.9946L17.3657 7.04358L17.4105 7.11741L17.4657 7.20503C17.7813 7.69865 18.1596 8.14927 18.591 8.54563C19.2207 9.12211 19.9533 9.5748 20.7506 9.88001H20.7561C20.7651 10.3913 20.7741 10.9039 20.7824 11.4152L20.8024 12.2321Z" fill="white"/>
<path opacity="0.17" d="M21.618 10.1242L21.6007 12.9924C21.0418 12.9855 20.4858 12.9109 19.9448 12.7702C19.1102 12.5522 18.3231 12.1819 17.6231 11.678C17.6231 11.9712 17.6272 12.4087 17.6272 12.9406C17.6272 13.6485 17.6272 14.0508 17.6231 14.4779C17.6107 17.1163 17.6762 17.6269 17.4444 18.6701C17.3962 18.9216 17.3302 19.1695 17.2471 19.4118C16.8013 20.6537 15.8299 21.6486 14.8398 22.1778C14.5635 22.3247 14.2735 22.4442 13.9739 22.5345V5.41109L16.7903 5.39453C16.7883 5.61422 16.8187 5.833 16.8807 6.04378C16.8876 6.06655 16.8945 6.08794 16.9021 6.11278L17.1663 6.10795C17.3612 6.80919 17.6914 7.4655 18.1385 8.03984C18.2793 8.21948 18.4314 8.39002 18.5939 8.55041C19.3445 9.1562 20.207 9.32731 20.7479 9.37837C20.7514 9.5481 20.7555 9.71783 20.759 9.88756C21.0393 9.98674 21.3264 10.0658 21.618 10.1242Z" fill="black"/>
</g>
<defs>
<clipPath id="clip0_1209_253">
<rect width="28" height="28" fill="white"/>
</clipPath>
</defs>
</svg>
