<svg width="28" height="28" viewBox="0 0 28 28" fill="none" xmlns="http://www.w3.org/2000/svg">
<path d="M0 14C0 6.26801 6.26801 0 14 0C21.732 0 28 6.26801 28 14C28 21.732 21.732 28 14 28C6.26801 28 0 21.732 0 14Z" fill="#FF0000"/>
<path d="M21.1547 10.5432C20.983 9.88348 20.4769 9.36395 19.8344 9.18763C18.6699 8.86719 14.0001 8.86719 14.0001 8.86719C14.0001 8.86719 9.33031 8.86719 8.16576 9.18763C7.5232 9.36395 7.01717 9.88348 6.84544 10.5432C6.53345 11.739 6.53345 14.2339 6.53345 14.2339C6.53345 14.2339 6.53345 16.7287 6.84544 17.9245C7.01717 18.5842 7.5232 19.1038 8.16576 19.2802C9.33031 19.6005 14.0001 19.6005 14.0001 19.6005C14.0001 19.6005 18.6699 19.6005 19.8344 19.2802C20.4769 19.1038 20.983 18.5842 21.1547 17.9245C21.4668 16.7287 21.4668 14.2339 21.4668 14.2339C21.4668 14.2339 21.4668 11.739 21.1547 10.5432Z" fill="white"/>
<path d="M12.6001 16.7995V12.1328L16.3334 14.4662L12.6001 16.7995Z" fill="#FF0000"/>
</svg>
